<?xml version="1.0" standalone="no"?>
<!DOCTYPE svg PUBLIC "-//W3C//DTD SVG 20010904//EN"
 "http://www.w3.org/TR/2001/REC-SVG-20010904/DTD/svg10.dtd">
<svg version="1.0" xmlns="http://www.w3.org/2000/svg"
 width="728.000000pt" height="980.000000pt" viewBox="0 0 728.000000 980.000000"
 preserveAspectRatio="xMidYMid meet">
<metadata>
Created by potrace 1.15, written by Peter Selinger 2001-2017
</metadata>
<g transform="translate(0.000000,980.000000) scale(0.100000,-0.100000)"
fill="#000000" stroke="none">
<path d="M1534 9389 c-474 -471 -694 -701 -694 -723 0 -8 80 -97 177 -196
l177 -181 230 230 c127 127 234 231 239 231 4 0 7 -331 7 -735 l0 -735 285 0
285 0 0 737 0 738 236 -235 235 -235 153 156 c84 86 166 173 181 193 l27 36
-45 53 c-64 75 -946 965 -1017 1027 l-61 53 -415 -414z"/>
<path d="M4760 9065 c0 -404 -3 -735 -7 -735 -5 0 -114 106 -243 235 l-235
235 -190 -190 -190 -190 410 -411 c226 -226 481 -478 568 -561 l157 -149 42
33 c24 18 281 270 573 560 l530 527 -192 193 -193 193 -230 -230 -230 -230 0
728 0 727 -285 0 -285 0 0 -735z"/>
<path d="M615 7000 c-329 -8 -343 -11 -438 -74 -149 -99 -154 -121 -167 -786
-11 -554 -12 -3869 -1 -5015 9 -953 1 -877 108 -983 86 -85 140 -110 269 -125
152 -17 6358 -17 6512 0 66 7 119 20 150 34 64 31 152 122 187 193 l29 60 9
460 c4 254 5 1699 2 3211 l-6 2750 -37 55 c-53 79 -128 150 -202 190 l-65 35
-3025 1 c-1664 1 -3160 -2 -3325 -6z m5835 -3505 l0 -2665 -2805 0 -2805 0 0
2665 0 2665 2805 0 2805 0 0 -2665z"/>
<path d="M4822 5469 c-212 -36 -382 -240 -382 -459 0 -342 378 -558 684 -392
201 109 282 381 179 600 -79 168 -298 282 -481 251z"/>
<path d="M2274 5456 c-71 -23 -166 -79 -216 -130 -86 -88 -123 -198 -116 -347
4 -76 9 -97 42 -164 46 -93 121 -171 202 -211 57 -28 64 -29 209 -29 138 0
154 2 198 24 79 38 162 123 202 205 127 261 11 545 -264 642 -75 27 -189 31
-257 10z"/>
<path d="M1820 4481 c-113 -6 -132 -9 -193 -38 -83 -40 -163 -117 -201 -196
-26 -52 -30 -73 -37 -205 -18 -338 -5 -1056 21 -1145 17 -58 58 -80 142 -73
64 5 149 33 161 53 4 5 11 212 17 459 6 247 15 489 19 538 9 96 21 116 68 116
l23 0 1 -907 c0 -984 10 -1526 29 -1613 18 -79 35 -107 87 -140 94 -60 194
-47 299 40 l61 50 7 552 c9 643 17 813 40 836 15 15 17 15 32 0 22 -22 31
-157 39 -603 7 -429 21 -725 35 -774 18 -64 91 -120 173 -135 60 -11 136 16
205 74 l59 50 7 912 c7 909 20 1568 32 1620 12 51 75 45 89 -9 4 -16 10 -251
14 -523 7 -535 7 -532 63 -573 33 -24 114 -33 161 -18 19 7 56 35 83 63 l47
50 -7 617 -7 616 -47 79 c-55 91 -120 154 -199 192 -52 24 -71 27 -247 35
-211 9 -880 9 -1076 0z"/>
<path d="M4330 4481 c-180 -11 -278 -58 -366 -174 -80 -107 -74 -46 -75 -745
-2 -716 -7 -671 83 -716 58 -29 135 -35 178 -13 65 32 75 120 86 740 l7 407
52 0 52 0 6 -242 c4 -133 7 -561 7 -952 1 -744 12 -1325 28 -1367 26 -66 122
-122 209 -122 62 0 154 42 184 83 24 33 36 267 44 851 3 233 8 461 11 507 l6
83 51 -3 52 -3 6 -620 c4 -380 11 -649 18 -695 16 -104 37 -139 101 -172 96
-51 225 -33 293 39 l28 30 9 294 c5 162 11 571 15 909 3 338 8 787 11 998 l6
382 54 0 54 0 0 -242 c1 -337 17 -786 29 -829 17 -57 52 -82 120 -87 48 -3 70
0 114 21 99 45 92 -10 89 720 l-2 639 -39 56 c-47 70 -134 153 -188 180 -22
12 -69 26 -104 32 -77 13 -1049 21 -1229 11z"/>
</g>
</svg>
